<svg width="138" height="45" viewBox="0 0 138 45" fill="none" xmlns="http://www.w3.org/2000/svg">
<path d="M118.072 22.4697C118.365 22.7626 118.365 23.2374 118.072 23.5303L113.299 28.3033C113.006 28.5962 112.531 28.5962 112.238 28.3033C111.945 28.0104 111.945 27.5355 112.238 27.2426L116.481 23L112.238 18.7574C111.945 18.4645 111.945 17.9896 112.238 17.6967C112.531 17.4038 113.006 17.4038 113.299 17.6967L118.072 22.4697ZM95.5967 22.25L117.541 22.25V23.75L95.5967 23.75V22.25Z" fill="black"/>
<rect x="-0.75" y="0.75" width="135.155" height="43.5" rx="21.75" transform="matrix(-1 0 0 1 135.995 0)" stroke="black" stroke-width="1.5"/>
<path d="M30.5229 16.4V29H29.0469L21.4869 19.604V29H19.6869V16.4H21.1629L28.7229 25.796V16.4H30.5229ZM42.1243 24.284C42.1243 24.416 42.1123 24.59 42.0883 24.806H34.3483C34.4563 25.646 34.8223 26.324 35.4463 26.84C36.0823 27.344 36.8683 27.596 37.8043 27.596C38.9443 27.596 39.8623 27.212 40.5583 26.444L41.5123 27.56C41.0803 28.064 40.5403 28.448 39.8923 28.712C39.2563 28.976 38.5423 29.108 37.7503 29.108C36.7423 29.108 35.8483 28.904 35.0683 28.496C34.2883 28.076 33.6823 27.494 33.2503 26.75C32.8303 26.006 32.6203 25.166 32.6203 24.23C32.6203 23.306 32.8243 22.472 33.2323 21.728C33.6523 20.984 34.2223 20.408 34.9423 20C35.6743 19.58 36.4963 19.37 37.4083 19.37C38.3203 19.37 39.1303 19.58 39.8383 20C40.5583 20.408 41.1163 20.984 41.5123 21.728C41.9203 22.472 42.1243 23.324 42.1243 24.284ZM37.4083 20.828C36.5803 20.828 35.8843 21.08 35.3203 21.584C34.7683 22.088 34.4443 22.748 34.3483 23.564H40.4683C40.3723 22.76 40.0423 22.106 39.4783 21.602C38.9263 21.086 38.2363 20.828 37.4083 20.828ZM49.8041 29L47.0501 25.346L44.2601 29H42.3341L46.0961 24.122L42.5141 19.46H44.4401L47.0681 22.898L49.6781 19.46H51.5681L47.9681 24.122L51.7661 29H49.8041ZM58.4758 28.442C58.2238 28.658 57.9118 28.826 57.5398 28.946C57.1678 29.054 56.7838 29.108 56.3878 29.108C55.4278 29.108 54.6838 28.85 54.1558 28.334C53.6278 27.818 53.3638 27.08 53.3638 26.12V20.882H51.7438V19.46H53.3638V17.372H55.0918V19.46H57.8278V20.882H55.0918V26.048C55.0918 26.564 55.2178 26.96 55.4698 27.236C55.7338 27.512 56.1058 27.65 56.5858 27.65C57.1138 27.65 57.5638 27.5 57.9358 27.2L58.4758 28.442Z" fill="black"/>
</svg>
