<svg width="138" height="45" viewBox="0 0 138 45" fill="none" xmlns="http://www.w3.org/2000/svg">
<path d="M118.205 22.4697C118.498 22.7626 118.498 23.2374 118.205 23.5303L113.432 28.3033C113.139 28.5962 112.664 28.5962 112.371 28.3033C112.078 28.0104 112.078 27.5355 112.371 27.2426L116.614 23L112.371 18.7574C112.078 18.4645 112.078 17.9896 112.371 17.6967C112.664 17.4038 113.139 17.4038 113.432 17.6967L118.205 22.4697ZM95.7296 22.25L117.674 22.25V23.75L95.7296 23.75V22.25Z" fill="white"/>
<rect x="-0.75" y="0.75" width="135.155" height="43.5" rx="21.75" transform="matrix(-1 0 0 1 136.128 0)" stroke="#E0E0E0" stroke-width="1.5"/>
<path d="M30.6557 16.4V29H29.1797L21.6197 19.604V29H19.8197V16.4H21.2957L28.8557 25.796V16.4H30.6557ZM42.2571 24.284C42.2571 24.416 42.2451 24.59 42.2211 24.806H34.4811C34.5891 25.646 34.9551 26.324 35.5791 26.84C36.2151 27.344 37.0011 27.596 37.9371 27.596C39.0771 27.596 39.9951 27.212 40.6911 26.444L41.6451 27.56C41.2131 28.064 40.6731 28.448 40.0251 28.712C39.3891 28.976 38.6751 29.108 37.8831 29.108C36.8751 29.108 35.9811 28.904 35.2011 28.496C34.4211 28.076 33.8151 27.494 33.3831 26.75C32.9631 26.006 32.7531 25.166 32.7531 24.23C32.7531 23.306 32.9571 22.472 33.3651 21.728C33.7851 20.984 34.3551 20.408 35.0751 20C35.8071 19.58 36.6291 19.37 37.5411 19.37C38.4531 19.37 39.2631 19.58 39.9711 20C40.6911 20.408 41.2491 20.984 41.6451 21.728C42.0531 22.472 42.2571 23.324 42.2571 24.284ZM37.5411 20.828C36.7131 20.828 36.0171 21.08 35.4531 21.584C34.9011 22.088 34.5771 22.748 34.4811 23.564H40.6011C40.5051 22.76 40.1751 22.106 39.6111 21.602C39.0591 21.086 38.3691 20.828 37.5411 20.828ZM49.9369 29L47.1829 25.346L44.3929 29H42.4669L46.2289 24.122L42.6469 19.46H44.5729L47.2009 22.898L49.8109 19.46H51.7009L48.1009 24.122L51.8989 29H49.9369ZM58.6086 28.442C58.3566 28.658 58.0446 28.826 57.6726 28.946C57.3006 29.054 56.9166 29.108 56.5206 29.108C55.5606 29.108 54.8166 28.85 54.2886 28.334C53.7606 27.818 53.4966 27.08 53.4966 26.12V20.882H51.8766V19.46H53.4966V17.372H55.2246V19.46H57.9606V20.882H55.2246V26.048C55.2246 26.564 55.3506 26.96 55.6026 27.236C55.8666 27.512 56.2386 27.65 56.7186 27.65C57.2466 27.65 57.6966 27.5 58.0686 27.2L58.6086 28.442Z" fill="white"/>
</svg>
